<svg width="134" height="23" fill="none" xmlns="http://www.w3.org/2000/svg"><path d="M70.753 9c0 2.33-1.133 4.474-2.311 6.067a17.308 17.308 0 01-2.008 2.26 17.32 17.32 0 01-2.008-2.261c-1.176-1.591-2.31-3.736-2.31-6.066 0-2.33 1.134-4.474 2.312-6.067a17.323 17.323 0 012.007-2.26 17.312 17.312 0 012.008 2.261C69.62 4.525 70.753 6.67 70.753 9z" stroke="#fff"/><path d="M64.557 8.78c1.461 1.667 2.033 4.098 2.224 6.182a20.83 20.83 0 01.037 3.268 14.035 14.035 0 01-2.864-.042c-1.826-.219-3.956-.871-5.417-2.538-1.46-1.668-2.032-4.098-2.224-6.183a20.847 20.847 0 01-.037-3.268 14.028 14.028 0 012.864.042c1.826.219 3.956.871 5.417 2.538zm5.093 0c-1.462 1.667-2.033 4.098-2.225 6.182a20.83 20.83 0 00-.037 3.268 14.035 14.035 0 002.864-.042c1.826-.219 3.956-.871 5.417-2.538 1.46-1.668 2.032-4.098 2.224-6.183A20.847 20.847 0 0077.93 6.2a14.028 14.028 0 00-2.864.042c-1.826.219-3.956.871-5.417 2.538zM45 12H0m134 0H88" stroke="#fff"/></svg>